<svg xmlns="http://www.w3.org/2000/svg" version="1.1" xmlns:xlink="http://www.w3.org/1999/xlink" xmlns:svgjs="http://svgjs.dev/svgjs" width="100%" height="100%" viewBox="0 0 1000 600"><rect width="1000" height="600" x="0" y="0" fill="#191919"/><g><circle r="166.66666666666666" cx="277.4642893473307" cy="299.6865107512026" fill="#b88746" transform="matrix(1.1281828609129143,0,0,1.128182860912914,0,-38.10119453210018)"/><path d="M257.75593247424354 366.0540547037526L257.75593247424354 372.1699342772032L198.55772971304583 372.1699342772032L198.55772971304583 366.0540547037526Q203.18121762024762 364.3860875473571 207.921755854214 363.09853395294647Q212.66229408818043 361.840242940227 218.13439686442558 360.99162807118364L218.13439686442558 360.99162807118364L218.13439686442558 235.63072810629433L185.91629442246875 235.63072810629433L174.7379882164492 265.77118724817944L169.4707235120421 265.77118724817944Q168.85620929652794 261.5573754846538 168.41727057116066 256.1730604534821Q168.00759442748455 250.81800800400148 167.6857060288819 245.2288549009917Q167.36381763027924 239.63970179798196 167.1589795584412 234.2846493485014Q166.95414148660313 228.90033431732965 166.95414148660313 224.68652255380397L166.95414148660313 224.68652255380397L289.35952070068623 224.68652255380397Q289.35952070068623 228.90033431732965 289.1546826288482 234.16759902173678Q288.9498445570101 239.4348637261439 288.62795615840747 245.02401682915365Q288.3060677598048 250.61316993216343 287.9841793612021 255.96822238164398Q287.6622909625995 261.35253741281576 287.0477767470853 265.77118724817944L287.0477767470853 265.77118724817944L281.57567397084017 265.77118724817944L270.60220583665864 235.63072810629433L238.38410339470184 235.63072810629433L238.38410339470184 360.99162807118364Q243.856206170947 362.045081012065 248.5967444049134 363.09853395294647Q253.3372826388798 364.1519868938278 257.75593247424354 366.0540547037526L257.75593247424354 366.0540547037526ZM288.7157439034809 319.49728723313206L288.7157439034809 319.49728723313206Q288.7157439034809 306.2120751453497 292.1979911247278 295.999434135138Q295.6802383459748 285.7867931249265 302.2057940631014 278.73451093735923Q308.7313497802279 271.6822287497919 317.91980043124926 267.99514345670696Q327.0789885005794 264.3080581636219 338.22803212490777 264.3080581636219L338.22803212490777 264.3080581636219Q351.3084061408521 264.3080581636219 360.7894826087849 268.28776927361844Q370.27055907671775 272.29674296530607 376.26938832340363 279.58312580640256Q382.2682175700895 286.84024606580795 385.1066879941311 296.96509933094603Q387.97442099986387 307.060690014393 387.97442099986387 319.49728723313206L387.97442099986387 319.49728723313206Q387.97442099986387 346.0384488270056 374.4843708402434 360.37711385566945Q360.994320680623 374.6865163026421 338.22803212490777 374.6865163026421L338.22803212490777 374.6865163026421Q325.58659683433075 374.6865163026421 316.3396210199271 370.794592937719Q307.06338262383235 366.90266957279607 300.9475030503819 359.6455493133907Q294.83162347693144 352.3591664722942 291.7883149810517 342.14652546208265Q288.7157439034809 331.933884451871 288.7157439034809 319.49728723313206ZM308.96545043375716 319.49728723313206L308.96545043375716 319.49728723313206Q308.96545043375716 328.97836370106484 310.75046791691733 337.40598722811615Q312.5354854000775 345.83361075516757 316.42740876500056 352.0372780736915Q320.3193321299236 358.2702079739066 326.6400497752121 361.840242940227Q332.9607674205007 365.43954048823855 341.8273296729193 365.43954048823855L341.8273296729193 365.43954048823855Q353.2104739507769 365.43954048823855 360.46759421018226 354.261234282219Q367.72471446958764 343.08292807619944 367.72471446958764 319.49728723313206L367.72471446958764 319.49728723313206Q367.72471446958764 309.81137269336114 365.9396969864274 301.47153691138317Q364.1546795032673 293.16096371109643 360.35054388341763 286.9572963925725Q356.57567084525925 280.7243664923574 350.6646293436468 277.154331526037Q344.78285042372556 273.55503397802556 336.56006496851217 273.55503397802556L336.56006496851217 273.55503397802556Q324.12346774977317 273.55503397802556 316.5444590917652 284.7333401840451Q308.96545043375716 295.91164639006456 308.96545043375716 319.49728723313206Z " fill="#191919" transform="matrix(1.1281828609129143,0,0,1.128182860912914,0,-38.10119453210018)"/><path d="M547.4584938799339 372.1980942187207L527.4642809758227 372.1980942187207L527.4642809758227 366.1506405328173Q534.7559476210267 362.82309424631546 544.5360401848322 361.1448535105145L544.5360401848322 361.1448535105145L544.5360401848322 237.62054831854522Q539.7617346433296 236.57888165494464 535.3635865081271 235.21892795524386Q530.9943735580247 233.8589742555431 527.4642809758227 232.4122150005423L527.4642809758227 232.4122150005423L527.4642809758227 226.3647613146389L548.7027068392347 226.3647613146389Q552.2617346065366 226.3647613146389 557.0360401480393 226.16221501893878Q561.839280874642 225.95966872323868 566.9318734522449 225.6413816871385Q572.0534012149477 225.32309465103833 576.7409012011503 225.00480761493816Q581.428401187353 224.68652057883799 584.5534011781547 224.68652057883799L584.5534011781547 224.68652057883799Q619.9700677405746 224.68652057883799 639.0094195363852 243.6680020044486Q658.0777065172958 262.6205482449592 658.0777065172958 297.40064073517874L658.0777065172958 297.40064073517874Q658.0777065172958 313.864761057088 653.3902065310933 327.9272610156959Q648.7027065448906 341.98976097430375 639.1251602767852 352.2038813146095Q629.5476140086798 362.4180016549152 614.8485399778717 368.2339738600184Q600.1784011321635 374.0788812502217 580.1552530429522 374.0788812502217L580.1552530429522 374.0788812502217Q577.0302530521506 374.0788812502217 573.0950678785482 373.7605942141215Q569.1309475198461 373.44230717802134 564.7617345697436 373.12402014192116Q560.363586434541 372.83466829092106 555.9075679291386 372.5163812548209Q551.4226142386361 372.1980942187207 547.4584938799339 372.1980942187207L547.4584938799339 372.1980942187207ZM581.630947483053 235.53721499134406L581.630947483053 235.53721499134406Q576.22006786935 235.53721499134406 571.2142808470472 235.6240205466441Q566.2084938247444 235.73976128704416 563.2860401296427 236.37633535924454L563.2860401296427 236.37633535924454L563.2860401296427 362.62054795061533Q564.3277067932434 362.82309424631546 567.0476141926449 362.9388349867155Q569.7385864069464 363.0256405420155 572.8635863977481 363.14138128241564Q575.98858638855 363.2281868377156 578.8242345283516 363.2281868377156Q581.630947483053 363.2281868377156 582.8751604423537 363.2281868377156L582.8751604423537 363.2281868377156Q597.2559474370619 363.2281868377156 607.2385862965674 357.81730722401255Q617.2501603411731 352.4064276103096 623.6159010631766 343.34971467400453Q629.9527066000801 334.29300173769946 632.8751602951818 322.4006406615928Q635.7976139902835 310.53721477058605 635.7976139902835 297.40064073517874L635.7976139902835 297.40064073517874Q635.7976139902835 287.186520394873 632.9909010355818 276.24902042706685Q630.1552528957802 265.3115204592608 623.8184473588767 256.2548075229556Q617.4527066368731 247.19809458665057 607.0360400008674 241.35318719644732Q596.6193733648615 235.53721499134406 581.630947483053 235.53721499134406ZM677.4642805343069 320.1147610386914L677.4642805343069 320.1147610386914Q677.4642805343069 306.9781870032841 680.9075675612087 296.87980740337844Q684.3219194030107 286.78142780347275 690.8034008654142 279.8080481943689Q697.255947142718 272.8346685852649 706.3126600790231 269.1888352626629Q715.3693730153282 265.5430019400609 726.4226137235344 265.5430019400609L726.4226137235344 265.5430019400609Q739.3277062781415 265.5430019400609 748.7027062505467 269.4781871136631Q758.077706222952 273.4423074723653 764.0094191684555 280.64716856226937Q769.9700672990587 287.82309446707336 772.7767802537603 297.83466851167896Q775.583493208462 307.8173073711846 775.583493208462 320.1147610386914L775.583493208462 320.1147610386914Q775.583493208462 346.3589739244062 762.2443728773544 360.5372146234141Q748.9052525462469 374.6865201373221 726.4226137235344 374.6865201373221L726.4226137235344 374.6865201373221Q713.9226137603273 374.6865201373221 704.7501600836222 370.83814051901993Q695.5777064069171 366.9897609007178 689.5302527210135 359.8138349959137Q683.5117342202102 352.60897390600974 680.4735397847085 342.51059430610405Q677.4642805343069 332.41221470619837 677.4642805343069 320.1147610386914ZM697.4584934384181 320.1147610386914L697.4584934384181 320.1147610386914Q697.4584934384181 329.4897610110967 699.223539729519 337.82309431990143Q700.98858602062 346.15642762870607 704.8659008240222 352.29068686990956Q708.7142804423243 358.453881296213 714.9642804239279 361.983973878415Q721.2142804055313 365.5430016457169 729.9527063057362 365.5430016457169L729.9527063057362 365.5430016457169Q741.2084933096426 365.5430016457169 748.3844192144466 354.4897609375107Q755.5892803043507 343.4365202293045 755.5892803043507 320.1147610386914L755.5892803043507 320.1147610386914Q755.5892803043507 310.53721477058605 753.8242340132497 302.2906870170815Q752.0302525370487 294.0730944486769 748.2976136591465 287.9388352074734Q744.5360395961445 281.77564078116995 738.7200673910411 278.245548198968Q732.8751600008379 274.68652043166594 724.7443729877334 274.68652043166594L724.7443729877334 274.68652043166594Q712.4469193202265 274.68652043166594 704.9527063793223 285.73976113987214Q697.4584934384181 296.79300184807835 697.4584934384181 320.1147610386914Z " fill="#b88746" transform="matrix(1.1281828609129143,0,0,1.128182860912914,0,-38.10119453210018)"/></g></svg>